<svg version="1.1" xmlns="http://www.w3.org/2000/svg" xmlns:xlink="http://www.w3.org/1999/xlink" width="48" height="48"><defs><linearGradient x1="9.1503" y1="9.1503" x2="73.77874" y2="73.77874" gradientUnits="userSpaceOnUse" id="color-1"><stop offset="0.38" stop-color="#000000" stop-opacity="0.4"></stop><stop offset="1" stop-color="#000000" stop-opacity="0"></stop></linearGradient><filter id="dropshadow-base"><feColorMatrix type="matrix" values="0 0 0 0 0  0 0 0 0 0  0 0 0 0 0  0 0 0 .8 0"></feColorMatrix> <feOffset dx="0" dy="1"></feOffset> <feGaussianBlur stdDeviation="1"></feGaussianBlur> <feComposite in="SourceGraphic"></feComposite></filter><filter id="dropshadow-banner" x="-10%" y="-10%" width="120%" height="130%"><feColorMatrix type="matrix" values="0 0 0 0 0  0 0 0 0 0  0 0 0 0 0  0 0 0 .4 0"></feColorMatrix> <feOffset dx="0" dy="1"></feOffset> <feGaussianBlur stdDeviation="0.5"></feGaussianBlur> <feComposite in="SourceGraphic"></feComposite></filter></defs><g fill="none" fill-rule="nonzero" stroke="none" stroke-width="none" stroke-linecap="butt" stroke-linejoin="miter" stroke-miterlimit="10" stroke-dasharray="" stroke-dashoffset="0" font-family="none" font-weight="none" font-size="none" text-anchor="none" style="mix-blend-mode: normal"><path d="M7,43c-1.10457,0 -2,-0.89543 -2,-2v-34c0,-1.10457 0.89543,-2 2,-2h34c1.10457,0 2,0.89543 2,2v34c0,1.10457 -0.89543,2 -2,2z" id="base 1 5 1 1 1 1 1" fill="#1db954" stroke-width="1"></path><path d="M10.11656,37.88344c-0.59708,-0.59708 -0.96626,-1.42206 -0.96626,-2.33367v-23.09954c0,-1.82322 1.47671,-3.29993 3.29993,-3.29993h23.09954c0.91161,0 1.73659,0.36918 2.33367,0.96626l5.11656,5.11656v25.76688c0,1.10457 -0.89543,2 -2,2l-25.76688,0z" fill="url(#color-1)" stroke-width="1"></path><path d="M35.54977,9.1503h-23.09954c-1.82321,0 -3.29993,1.47672 -3.29993,3.29993v23.09954c0,1.82321 1.47672,3.29993 3.29993,3.29993h23.09954c1.82321,0 3.29993,-1.47672 3.29993,-3.29993v-23.09954c0,-1.82321 -1.47672,-3.29993 -3.29993,-3.29993zM19.0501,32.24983h-3.29993v-11.54977h3.29993zM25.64997,32.24983h-3.29993v-16.49967h3.29993zM32.24983,32.24983h-3.29993v-6.59987h3.29993z" fill="none" stroke-width="0"></path><path d="M38.8497,12.45023v23.09954c0,1.82321 -1.47672,3.29993 -3.29993,3.29993h-23.09954c-1.82321,0 -3.29993,-1.47672 -3.29993,-3.29993v-23.09954c0,-1.82321 1.47672,-3.29993 3.29993,-3.29993h23.09954c1.82321,0 3.29993,1.47672 3.29993,3.29993zM19.0501,20.70007h-3.29993v11.54977h3.29993zM25.64997,15.75017h-3.29993v16.49967h3.29993zM32.24983,25.64997h-3.29993v6.59987h3.29993z" fill="#f2f2f2" stroke-width="0"></path><path d="M2,24c0,-12.15026 9.84974,-22 22,-22c12.15026,0 22,9.84974 22,22c0,12.15026 -9.84974,22 -22,22c-12.15026,0 -22,-9.84974 -22,-22z" id="base 1 1 1" fill="none" stroke-width="1"></path><g fill="#000000" stroke-width="1" font-family="Roboto, sans-serif" font-weight="400" font-size="14" text-anchor="start"></g><rect x="2" y="2" width="44" height="22" fill="none" stroke-width="1"></rect><path d="M2,24v-22h44v22z" fill="none" stroke-width="1"></path><path d="M2,24v-22h44v22z" fill="none" stroke-width="1"></path><path d="M2,24v-22h44v22z" fill="none" stroke-width="1"></path><path d="M2,24v-22h44v22z" fill="none" stroke-width="1"></path></g></svg>